<?xml version="1.0" standalone="no"?>
<!DOCTYPE svg PUBLIC "-//W3C//DTD SVG 20010904//EN"
 "http://www.w3.org/TR/2001/REC-SVG-20010904/DTD/svg10.dtd">
<svg version="1.0" xmlns="http://www.w3.org/2000/svg"
 width="1000.000000pt" height="1000.000000pt" viewBox="0 0 1000.000000 1000.000000"
 preserveAspectRatio="xMidYMid meet">
<metadata>
Created by potrace 1.11, written by Peter Selinger 2001-2013
</metadata>
<g transform="translate(0.000000,1000.000000) scale(0.100000,-0.100000)"
fill="#000000" stroke="none">
<path d="M2955 8860 c-10 -52 -12 -59 -14 -62 -2 -2 -4 -14 -7 -27 -2 -13 -13
-43 -24 -67 -10 -24 -17 -44 -15 -44 2 0 -14 -37 -36 -81 -72 -148 -163 -267
-266 -347 -49 -38 -153 -96 -153 -85 0 5 -4 2 -8 -5 -5 -7 -19 -14 -31 -17
-13 -2 -29 -9 -37 -16 -8 -6 -14 -9 -14 -6 0 3 -23 -1 -52 -8 -28 -8 -54 -14
-57 -13 -24 2 -41 -4 -36 -13 4 -6 12 -8 19 -6 6 3 20 -1 30 -9 11 -7 23 -11
27 -8 5 3 23 -2 41 -10 18 -8 58 -25 88 -36 49 -19 157 -73 185 -92 98 -69
181 -148 235 -224 37 -53 111 -204 105 -215 -3 -4 -1 -10 5 -14 6 -4 8 -11 5
-16 -4 -5 -3 -9 2 -9 4 0 8 -12 9 -28 0 -15 5 -45 9 -67 l8 -40 9 35 c5 19 11
42 12 50 8 39 58 161 93 228 18 34 30 62 25 62 -4 0 -2 4 4 8 6 4 29 35 53 70
23 34 46 62 51 62 6 0 10 5 10 11 0 17 115 121 124 112 3 -4 6 -2 6 4 0 9 81
64 100 69 3 0 25 10 50 22 25 12 54 22 66 22 11 0 24 3 28 7 7 8 12 9 54 11
39 3 24 18 -30 30 -58 13 -82 19 -85 22 -2 2 -6 3 -10 4 -25 6 -90 39 -105 53
-10 9 -18 13 -18 9 0 -6 -60 35 -86 60 -7 6 -25 21 -40 35 -16 13 -47 47 -69
74 -21 28 -42 52 -46 55 -8 7 -98 164 -97 170 1 3 -8 23 -19 45 -19 36 -76
212 -86 260 -2 12 -7 2 -12 -25z"/>
<path d="M5348 7945 c-2 -1 -34 -5 -73 -9 -90 -8 -292 -49 -375 -76 -36 -11
-72 -22 -80 -24 -15 -3 -26 -7 -85 -29 -16 -7 -32 -12 -35 -13 -7 -1 -27 -9
-130 -52 -230 -96 -551 -287 -726 -431 -17 -14 -53 -44 -80 -66 -56 -46 -185
-166 -223 -208 -14 -16 -42 -46 -61 -66 -55 -59 -91 -101 -86 -101 3 0 -7 -12
-21 -27 -26 -28 -173 -247 -173 -258 0 -3 -11 -23 -25 -45 -14 -22 -22 -40
-19 -40 4 0 -1 -9 -12 -21 -10 -12 -18 -23 -16 -25 1 -2 -7 -25 -18 -51 -11
-26 -28 -72 -36 -102 -9 -31 -20 -61 -25 -67 -7 -9 -65 -30 -109 -40 -3 0 -12
-3 -20 -6 -8 -3 -37 -14 -65 -23 -70 -25 -196 -78 -225 -95 -8 -5 -43 -24 -77
-41 -35 -17 -68 -38 -74 -45 -6 -8 -17 -14 -23 -14 -19 0 -158 -111 -227 -181
-64 -66 -141 -172 -168 -234 -23 -52 -52 -149 -55 -182 -1 -18 -5 -35 -8 -38
-3 -3 -2 -22 1 -43 4 -20 4 -50 1 -67 -4 -16 -6 -109 -5 -207 l0 -176 -40 -13
c-22 -6 -49 -13 -60 -15 -11 -1 -22 -3 -25 -4 -3 -1 -8 -2 -12 -1 -5 0 -8 -4
-8 -10 0 -5 -4 -7 -10 -4 -5 3 -16 3 -22 -2 -7 -4 -20 -9 -28 -10 -24 -4 -229
-58 -307 -82 -18 -5 -33 -7 -33 -3 0 13 -69 -65 -255 -288 -188 -226 -252
-305 -310 -385 -11 -15 -25 -32 -30 -39 -12 -13 -65 -86 -127 -177 -58 -84
-128 -211 -128 -232 0 -10 -4 -17 -8 -17 -4 0 -9 -15 -10 -34 -3 -44 16 -58
173 -126 28 -12 66 -29 85 -37 19 -9 49 -21 65 -28 17 -8 91 -38 165 -68 74
-29 144 -57 155 -62 11 -5 22 -9 25 -10 3 -1 19 -7 35 -14 17 -6 56 -22 88
-34 l57 -22 0 -786 0 -786 27 -13 c16 -7 154 -66 308 -132 154 -66 296 -128
315 -136 19 -9 37 -16 40 -17 3 0 27 -11 54 -23 27 -12 50 -22 52 -22 2 0 27
-11 56 -24 29 -13 80 -35 113 -49 203 -86 257 -109 353 -153 29 -13 59 -24 67
-24 8 0 15 -4 15 -8 0 -5 6 -9 13 -9 6 -1 84 -32 172 -71 88 -38 174 -75 190
-82 17 -7 48 -21 70 -30 23 -10 101 -44 175 -75 74 -32 151 -64 170 -73 19 -9
38 -15 43 -14 4 1 7 -2 7 -8 0 -6 3 -9 8 -8 6 2 230 -90 352 -146 25 -11 48
-19 53 -18 4 1 7 -2 7 -8 0 -6 3 -9 8 -8 4 1 23 -5 42 -14 19 -8 107 -45 195
-83 88 -37 187 -79 220 -94 33 -15 123 -54 200 -86 77 -33 143 -64 147 -70 4
-5 8 -7 8 -3 0 4 30 -6 66 -22 95 -43 136 -39 279 25 17 7 64 28 105 45 41 17
89 37 105 45 17 7 46 20 65 29 19 8 58 25 85 37 28 12 52 23 55 24 16 5 68 27
85 35 31 15 719 311 730 314 6 2 30 12 55 23 153 69 366 157 373 155 4 -1 7 2
7 8 0 5 6 10 13 10 8 0 68 24 136 54 67 30 123 54 124 54 1 0 22 8 47 19 25
11 88 39 140 61 52 23 217 93 365 157 149 64 275 117 280 119 6 1 30 11 55 23
49 23 117 52 125 52 3 1 28 12 55 26 27 14 51 24 52 23 2 -1 19 6 38 15 58 27
224 98 235 101 18 5 69 27 112 48 l43 21 -1 779 c0 428 2 782 5 787 3 5 88 41
188 81 101 40 197 78 213 85 17 7 66 27 110 45 44 18 112 47 150 65 202 93
188 83 180 140 -7 49 -117 258 -155 295 -3 3 -22 30 -43 60 -20 30 -48 68 -62
84 -14 16 -25 32 -25 36 0 3 -8 15 -17 26 -10 10 -63 75 -117 144 -123 154
-243 298 -273 327 -13 12 -23 26 -23 30 -1 4 -31 40 -68 79 -66 70 -88 82
-177 99 -11 2 -22 4 -25 5 -3 1 -8 2 -12 1 -5 0 -8 4 -8 10 0 5 -4 8 -9 5 -5
-3 -27 1 -50 9 -23 8 -42 14 -44 14 -1 -1 -22 5 -47 12 -25 7 -51 12 -57 10
-7 -1 -13 3 -13 9 0 6 -4 9 -8 6 -5 -3 -37 4 -73 14 -35 11 -75 21 -89 24 -14
2 -25 5 -25 6 0 1 -11 3 -25 6 -14 2 -32 7 -40 11 -20 9 -20 9 -62 17 -34 7
-40 15 -83 98 -57 112 -67 129 -84 151 -8 9 -11 17 -8 17 8 0 -164 257 -192
287 -12 12 -21 25 -21 29 0 4 -15 23 -32 44 -18 20 -53 61 -78 91 -56 68 -278
290 -349 349 -30 25 -59 50 -65 55 -25 23 -166 124 -231 167 -116 74 -204 124
-312 174 -57 26 -103 51 -103 56 0 4 11 31 24 60 48 108 84 252 90 367 2 36 5
71 7 76 1 6 0 17 -4 25 -3 8 -8 31 -11 50 -16 106 -45 180 -106 278 -24 37
-64 101 -90 142 -127 203 -183 283 -228 329 -28 28 -54 51 -59 51 -6 0 -18 9
-28 20 -10 11 -22 20 -27 20 -5 0 -27 12 -51 27 -23 14 -44 26 -47 26 -6 -1
-29 8 -82 30 -21 9 -38 14 -38 12 0 -2 -15 1 -32 6 -18 5 -48 12 -67 15 -18 3
-43 8 -55 11 -22 5 -323 13 -328 8z"/>
<path d="M3450 7654 c-26 -67 -45 -97 -87 -134 -24 -21 -53 -40 -64 -42 -17
-3 -29 -19 -14 -18 11 1 85 -44 85 -51 0 -4 8 -10 18 -13 20 -7 76 -102 67
-116 -3 -6 -2 -10 3 -10 5 0 17 20 26 45 23 58 83 123 131 139 22 8 33 16 26
20 -6 4 -11 4 -11 1 0 -3 -21 8 -46 26 -46 32 -105 112 -111 152 -5 32 -11 32
-23 1z"/>
<path d="M2479 7458 c-1 -18 -4 -30 -9 -45 -1 -5 -2 -11 -1 -15 0 -5 -4 -8
-10 -8 -5 0 -8 -4 -4 -9 11 -19 -78 -171 -136 -231 -59 -62 -173 -127 -231
-132 -38 -3 -35 -15 4 -24 47 -10 148 -55 148 -66 0 -5 5 -6 10 -3 6 3 10 1
10 -4 0 -6 6 -11 14 -11 17 0 133 -115 141 -140 4 -11 10 -20 15 -20 7 0 19
-24 26 -52 1 -5 2 -9 4 -10 3 -4 10 -34 17 -68 6 -32 23 -41 23 -12 1 9 9 35
20 57 11 22 19 45 20 51 0 5 6 16 13 23 6 6 12 15 12 19 1 10 24 50 43 75 68
87 189 166 259 170 40 3 37 5 -41 32 -145 51 -250 169 -316 357 -16 46 -30 75
-31 66z"/>
<path d="M7194 7395 c-4 -22 -7 -43 -6 -47 1 -5 -2 -8 -8 -8 -5 0 -10 -7 -10
-16 0 -25 -55 -128 -99 -187 -53 -69 -144 -136 -224 -163 -60 -21 -61 -22 -32
-29 113 -28 251 -144 310 -261 17 -32 34 -62 39 -65 5 -4 5 -12 2 -18 -4 -6
-3 -11 1 -11 5 0 9 -8 10 -17 1 -10 7 -31 14 -48 l12 -30 8 35 c5 19 10 44 13
55 9 45 71 141 121 189 49 47 103 89 115 92 3 0 36 15 74 33 38 18 86 35 105
39 l36 6 -50 13 c-27 8 -54 15 -60 16 -43 11 -121 62 -176 117 -60 60 -135
177 -142 222 -2 10 -6 21 -10 24 -4 4 -7 14 -7 23 -1 9 -7 30 -14 46 l-13 30
-9 -40z"/>
<path d="M6881 6655 c-14 -26 -38 -53 -54 -62 l-30 -15 30 -15 c16 -7 40 -33
53 -55 23 -41 23 -41 32 -17 14 38 62 75 91 70 18 -3 5 20 -17 29 -26 10 -72
64 -77 93 -3 12 -11 4 -28 -28z"/>
<path d="M7485 6514 c-37 -98 -90 -160 -169 -198 l-47 -23 43 -14 c68 -22 168
-138 173 -201 3 -35 13 -28 35 26 27 68 89 128 173 167 34 15 54 28 43 29 -54
1 -186 111 -186 156 0 7 -4 14 -8 16 -5 2 -16 23 -24 47 l-14 44 -19 -49z"/>
</g>
</svg>
